<mxfile host="app.diagrams.net" modified="2020-11-16T14:38:38.018Z" agent="5.0 (Macintosh; Intel Mac OS X 10_13_3) AppleWebKit/537.36 (KHTML, like Gecko) Chrome/86.0.4240.183 Safari/537.36" etag="Xjx0ofw6OVv8jMzOjPVM" version="13.9.9" type="github">
  <diagram id="C5RBs43oDa-KdzZeNtuy" name="Page-1">
    <mxGraphModel dx="1880" dy="774" grid="1" gridSize="10" guides="1" tooltips="1" connect="1" arrows="1" fold="1" page="1" pageScale="1" pageWidth="827" pageHeight="1169" math="0" shadow="0">
      <root>
        <mxCell id="WIyWlLk6GJQsqaUBKTNV-0" />
        <mxCell id="WIyWlLk6GJQsqaUBKTNV-1" parent="WIyWlLk6GJQsqaUBKTNV-0" />
        <mxCell id="pgET35z-hrxBjhuw732a-0" style="edgeStyle=orthogonalEdgeStyle;rounded=0;orthogonalLoop=1;jettySize=auto;html=1;exitX=0;exitY=0.75;exitDx=0;exitDy=0;entryX=1;entryY=0.5;entryDx=0;entryDy=0;" edge="1" parent="WIyWlLk6GJQsqaUBKTNV-1" source="YijEsty0o5q5vM4u5t1w-10" target="YijEsty0o5q5vM4u5t1w-57">
          <mxGeometry relative="1" as="geometry">
            <Array as="points">
              <mxPoint x="202" y="208" />
            </Array>
          </mxGeometry>
        </mxCell>
        <mxCell id="pgET35z-hrxBjhuw732a-1" style="edgeStyle=orthogonalEdgeStyle;rounded=0;orthogonalLoop=1;jettySize=auto;html=1;exitX=0;exitY=0.25;exitDx=0;exitDy=0;entryX=1;entryY=0.5;entryDx=0;entryDy=0;" edge="1" parent="WIyWlLk6GJQsqaUBKTNV-1" source="YijEsty0o5q5vM4u5t1w-10" target="YijEsty0o5q5vM4u5t1w-37">
          <mxGeometry relative="1" as="geometry">
            <Array as="points">
              <mxPoint x="264" y="78" />
            </Array>
          </mxGeometry>
        </mxCell>
        <mxCell id="pgET35z-hrxBjhuw732a-2" style="edgeStyle=orthogonalEdgeStyle;rounded=0;orthogonalLoop=1;jettySize=auto;html=1;exitX=0.5;exitY=1;exitDx=0;exitDy=0;entryX=0.5;entryY=0;entryDx=0;entryDy=0;" edge="1" parent="WIyWlLk6GJQsqaUBKTNV-1" source="YijEsty0o5q5vM4u5t1w-10" target="YijEsty0o5q5vM4u5t1w-15">
          <mxGeometry relative="1" as="geometry" />
        </mxCell>
        <mxCell id="pgET35z-hrxBjhuw732a-3" style="edgeStyle=orthogonalEdgeStyle;rounded=0;orthogonalLoop=1;jettySize=auto;html=1;exitX=0.5;exitY=1;exitDx=0;exitDy=0;entryX=0.483;entryY=0;entryDx=0;entryDy=0;entryPerimeter=0;" edge="1" parent="WIyWlLk6GJQsqaUBKTNV-1" source="YijEsty0o5q5vM4u5t1w-10" target="YijEsty0o5q5vM4u5t1w-28">
          <mxGeometry relative="1" as="geometry" />
        </mxCell>
        <mxCell id="pgET35z-hrxBjhuw732a-4" style="edgeStyle=orthogonalEdgeStyle;rounded=0;orthogonalLoop=1;jettySize=auto;html=1;exitX=1;exitY=0.75;exitDx=0;exitDy=0;entryX=0;entryY=0.5;entryDx=0;entryDy=0;" edge="1" parent="WIyWlLk6GJQsqaUBKTNV-1" source="YijEsty0o5q5vM4u5t1w-10" target="YijEsty0o5q5vM4u5t1w-33">
          <mxGeometry relative="1" as="geometry">
            <Array as="points">
              <mxPoint x="564" y="203" />
            </Array>
          </mxGeometry>
        </mxCell>
        <mxCell id="YijEsty0o5q5vM4u5t1w-10" value="&lt;p style=&quot;margin: 0px ; margin-top: 4px ; text-align: center&quot;&gt;&lt;b&gt;Game&lt;/b&gt;&lt;/p&gt;&lt;hr size=&quot;1&quot;&gt;&lt;p style=&quot;margin: 0px ; margin-left: 4px&quot;&gt;- parser : Parser&lt;/p&gt;&lt;p style=&quot;margin: 0px ; margin-left: 4px&quot;&gt;- currentRoom : Room&lt;/p&gt;&lt;p style=&quot;margin: 0px ; margin-left: 4px&quot;&gt;- player : Player&lt;/p&gt;&lt;hr size=&quot;1&quot;&gt;&lt;p style=&quot;margin: 0px ; margin-left: 4px&quot;&gt;- createRooms ( ) : void&lt;/p&gt;&lt;p style=&quot;margin: 0px ; margin-left: 4px&quot;&gt;+ play ( ) : void&lt;/p&gt;&lt;p style=&quot;margin: 0px ; margin-left: 4px&quot;&gt;- printWelcome ( ) : void&lt;/p&gt;&lt;p style=&quot;margin: 0px ; margin-left: 4px&quot;&gt;- processCommand (command : Command ) : boolean&lt;/p&gt;&lt;p style=&quot;margin: 0px ; margin-left: 4px&quot;&gt;- printHelp ( ) : void&lt;/p&gt;&lt;p style=&quot;margin: 0px ; margin-left: 4px&quot;&gt;- goRoom (command : Command) : void&lt;/p&gt;&lt;p style=&quot;margin: 0px ; margin-left: 4px&quot;&gt;- restart (command : Command) : int&lt;/p&gt;&lt;p style=&quot;margin: 0px ; margin-left: 4px&quot;&gt;- quit (command : Command) : boolean&lt;/p&gt;&lt;p style=&quot;margin: 0px ; margin-left: 4px&quot;&gt;- hint (command : Command) : void&lt;/p&gt;&lt;p style=&quot;margin: 0px ; margin-left: 4px&quot;&gt;- handBook ( ) : void&lt;/p&gt;&lt;p style=&quot;margin: 0px ; margin-left: 4px&quot;&gt;&lt;br&gt;&lt;/p&gt;" style="verticalAlign=top;align=left;overflow=fill;fontSize=12;fontFamily=Helvetica;html=1;" parent="WIyWlLk6GJQsqaUBKTNV-1" vertex="1">
          <mxGeometry x="264" y="20" width="300" height="250" as="geometry" />
        </mxCell>
        <mxCell id="YijEsty0o5q5vM4u5t1w-15" value="Player" style="swimlane;fontStyle=1;align=center;verticalAlign=top;childLayout=stackLayout;horizontal=1;startSize=26;horizontalStack=0;resizeParent=1;resizeParentMax=0;resizeLast=0;collapsible=1;marginBottom=0;fontFamily=Helvetica;" parent="WIyWlLk6GJQsqaUBKTNV-1" vertex="1">
          <mxGeometry x="130" y="330" width="270" height="222" as="geometry" />
        </mxCell>
        <mxCell id="YijEsty0o5q5vM4u5t1w-16" value="- name : String&#xa;- points : int&#xa;- inventoryList : ArrayList&#xa;- whatContain : int&#xa;- trash : Trash&#xa;" style="text;strokeColor=none;fillColor=none;align=left;verticalAlign=top;spacingLeft=4;spacingRight=4;overflow=hidden;rotatable=0;points=[[0,0.5],[1,0.5]];portConstraint=eastwest;" parent="YijEsty0o5q5vM4u5t1w-15" vertex="1">
          <mxGeometry y="26" width="270" height="74" as="geometry" />
        </mxCell>
        <mxCell id="YijEsty0o5q5vM4u5t1w-17" value="" style="line;strokeWidth=1;fillColor=none;align=left;verticalAlign=middle;spacingTop=-1;spacingLeft=3;spacingRight=3;rotatable=0;labelPosition=right;points=[];portConstraint=eastwest;" parent="YijEsty0o5q5vM4u5t1w-15" vertex="1">
          <mxGeometry y="100" width="270" height="10" as="geometry" />
        </mxCell>
        <mxCell id="YijEsty0o5q5vM4u5t1w-18" value="- openInventory (command : Command ) : void&#xa;- inspectTrash ( command : Command ) : void&#xa;- pickUp (command : Command) : void&#xa;- dropItem (command : Command ) : void&#xa;- search ( ) : voidÂ &#xa;- givePoints( ) : void" style="text;strokeColor=none;fillColor=none;align=left;verticalAlign=top;spacingLeft=4;spacingRight=4;overflow=hidden;rotatable=0;points=[[0,0.5],[1,0.5]];portConstraint=eastwest;" parent="YijEsty0o5q5vM4u5t1w-15" vertex="1">
          <mxGeometry y="110" width="270" height="112" as="geometry" />
        </mxCell>
        <mxCell id="YijEsty0o5q5vM4u5t1w-28" value="Room" style="swimlane;fontStyle=1;align=center;verticalAlign=top;childLayout=stackLayout;horizontal=1;startSize=26;horizontalStack=0;resizeParent=1;resizeParentMax=0;resizeLast=0;collapsible=1;marginBottom=0;fontFamily=Helvetica;" parent="WIyWlLk6GJQsqaUBKTNV-1" vertex="1">
          <mxGeometry x="420" y="330" width="290" height="210" as="geometry" />
        </mxCell>
        <mxCell id="YijEsty0o5q5vM4u5t1w-29" value="- description : String&#xa;+ trash : ArrayList&lt;Trash&gt;&#xa;- exits : HashMap&lt;String, Room&gt;&#xa;" style="text;strokeColor=none;fillColor=none;align=left;verticalAlign=top;spacingLeft=4;spacingRight=4;overflow=hidden;rotatable=0;points=[[0,0.5],[1,0.5]];portConstraint=eastwest;" parent="YijEsty0o5q5vM4u5t1w-28" vertex="1">
          <mxGeometry y="26" width="290" height="64" as="geometry" />
        </mxCell>
        <mxCell id="YijEsty0o5q5vM4u5t1w-30" value="" style="line;strokeWidth=1;fillColor=none;align=left;verticalAlign=middle;spacingTop=-1;spacingLeft=3;spacingRight=3;rotatable=0;labelPosition=right;points=[];portConstraint=eastwest;" parent="YijEsty0o5q5vM4u5t1w-28" vertex="1">
          <mxGeometry y="90" width="290" height="10" as="geometry" />
        </mxCell>
        <mxCell id="YijEsty0o5q5vM4u5t1w-31" value="+ setExit (direction : String, neighbor : Room) : void&#xa;+ getShortDescription ( ) : String&#xa;+ getLongDescription ( ) : String&#xa;- getExitString ( ) : String&#xa;+ getExit (direction : String) : Room&#xa;+ getName ( ) : String&#xa;" style="text;strokeColor=none;fillColor=none;align=left;verticalAlign=top;spacingLeft=4;spacingRight=4;overflow=hidden;rotatable=0;points=[[0,0.5],[1,0.5]];portConstraint=eastwest;strokeWidth=2;spacing=2;" parent="YijEsty0o5q5vM4u5t1w-28" vertex="1">
          <mxGeometry y="100" width="290" height="110" as="geometry" />
        </mxCell>
        <mxCell id="YijEsty0o5q5vM4u5t1w-32" value="Parser" style="swimlane;fontStyle=1;align=center;verticalAlign=top;childLayout=stackLayout;horizontal=1;startSize=26;horizontalStack=0;resizeParent=1;resizeParentMax=0;resizeLast=0;collapsible=1;marginBottom=0;fontFamily=Helvetica;" parent="WIyWlLk6GJQsqaUBKTNV-1" vertex="1">
          <mxGeometry x="680" y="155" width="220" height="130" as="geometry" />
        </mxCell>
        <mxCell id="YijEsty0o5q5vM4u5t1w-33" value="- commands : CommandWord&#xa;- reader : Scanner" style="text;strokeColor=none;fillColor=none;align=left;verticalAlign=top;spacingLeft=4;spacingRight=4;overflow=hidden;rotatable=0;points=[[0,0.5],[1,0.5]];portConstraint=eastwest;" parent="YijEsty0o5q5vM4u5t1w-32" vertex="1">
          <mxGeometry y="26" width="220" height="44" as="geometry" />
        </mxCell>
        <mxCell id="YijEsty0o5q5vM4u5t1w-34" value="" style="line;strokeWidth=1;fillColor=none;align=left;verticalAlign=middle;spacingTop=-1;spacingLeft=3;spacingRight=3;rotatable=0;labelPosition=right;points=[];portConstraint=eastwest;" parent="YijEsty0o5q5vM4u5t1w-32" vertex="1">
          <mxGeometry y="70" width="220" height="10" as="geometry" />
        </mxCell>
        <mxCell id="YijEsty0o5q5vM4u5t1w-35" value="+ getCommand ( ) : Command&#xa;+ showCommands ( ) : void" style="text;strokeColor=none;fillColor=none;align=left;verticalAlign=top;spacingLeft=4;spacingRight=4;overflow=hidden;rotatable=0;points=[[0,0.5],[1,0.5]];portConstraint=eastwest;" parent="YijEsty0o5q5vM4u5t1w-32" vertex="1">
          <mxGeometry y="80" width="220" height="50" as="geometry" />
        </mxCell>
        <mxCell id="YijEsty0o5q5vM4u5t1w-36" value="CommandWord" style="swimlane;fontStyle=1;align=center;verticalAlign=top;childLayout=stackLayout;horizontal=1;startSize=26;horizontalStack=0;resizeParent=1;resizeParentMax=0;resizeLast=0;collapsible=1;marginBottom=0;fontFamily=Helvetica;" parent="WIyWlLk6GJQsqaUBKTNV-1" vertex="1">
          <mxGeometry x="-60" y="40" width="200" height="100" as="geometry" />
        </mxCell>
        <mxCell id="YijEsty0o5q5vM4u5t1w-37" value="- commandString : String" style="text;strokeColor=none;fillColor=none;align=left;verticalAlign=top;spacingLeft=4;spacingRight=4;overflow=hidden;rotatable=0;points=[[0,0.5],[1,0.5]];portConstraint=eastwest;" parent="YijEsty0o5q5vM4u5t1w-36" vertex="1">
          <mxGeometry y="26" width="200" height="24" as="geometry" />
        </mxCell>
        <mxCell id="YijEsty0o5q5vM4u5t1w-38" value="" style="line;strokeWidth=1;fillColor=none;align=left;verticalAlign=middle;spacingTop=-1;spacingLeft=3;spacingRight=3;rotatable=0;labelPosition=right;points=[];portConstraint=eastwest;" parent="YijEsty0o5q5vM4u5t1w-36" vertex="1">
          <mxGeometry y="50" width="200" height="10" as="geometry" />
        </mxCell>
        <mxCell id="YijEsty0o5q5vM4u5t1w-39" value="+ toString : String" style="text;strokeColor=none;fillColor=none;align=left;verticalAlign=top;spacingLeft=4;spacingRight=4;overflow=hidden;rotatable=0;points=[[0,0.5],[1,0.5]];portConstraint=eastwest;" parent="YijEsty0o5q5vM4u5t1w-36" vertex="1">
          <mxGeometry y="60" width="200" height="40" as="geometry" />
        </mxCell>
        <mxCell id="YijEsty0o5q5vM4u5t1w-40" value="CommandWords" style="swimlane;fontStyle=1;align=center;verticalAlign=top;childLayout=stackLayout;horizontal=1;startSize=26;horizontalStack=0;resizeParent=1;resizeParentMax=0;resizeLast=0;collapsible=1;marginBottom=0;fontFamily=Helvetica;" parent="WIyWlLk6GJQsqaUBKTNV-1" vertex="1">
          <mxGeometry x="760" y="330" width="356" height="130" as="geometry" />
        </mxCell>
        <mxCell id="YijEsty0o5q5vM4u5t1w-41" value="- validCommand : HashMap&lt;String, CommandWord&gt;" style="text;strokeColor=none;fillColor=none;align=left;verticalAlign=top;spacingLeft=4;spacingRight=4;overflow=hidden;rotatable=0;points=[[0,0.5],[1,0.5]];portConstraint=eastwest;" parent="YijEsty0o5q5vM4u5t1w-40" vertex="1">
          <mxGeometry y="26" width="356" height="34" as="geometry" />
        </mxCell>
        <mxCell id="YijEsty0o5q5vM4u5t1w-42" value="" style="line;strokeWidth=1;fillColor=none;align=left;verticalAlign=middle;spacingTop=-1;spacingLeft=3;spacingRight=3;rotatable=0;labelPosition=right;points=[];portConstraint=eastwest;" parent="YijEsty0o5q5vM4u5t1w-40" vertex="1">
          <mxGeometry y="60" width="356" height="10" as="geometry" />
        </mxCell>
        <mxCell id="YijEsty0o5q5vM4u5t1w-43" value="+ getCommandWord (commandWord : String) : CommandWord&#xa;+ isCommand (aString : String) : boolean&#xa;+ showAll ( ) : voidÂ " style="text;strokeColor=none;fillColor=none;align=left;verticalAlign=top;spacingLeft=4;spacingRight=4;overflow=hidden;rotatable=0;points=[[0,0.5],[1,0.5]];portConstraint=eastwest;" parent="YijEsty0o5q5vM4u5t1w-40" vertex="1">
          <mxGeometry y="70" width="356" height="60" as="geometry" />
        </mxCell>
        <mxCell id="YijEsty0o5q5vM4u5t1w-44" value="Trash" style="swimlane;fontStyle=1;align=center;verticalAlign=top;childLayout=stackLayout;horizontal=1;startSize=26;horizontalStack=0;resizeParent=1;resizeParentMax=0;resizeLast=0;collapsible=1;marginBottom=0;fontFamily=Helvetica;" parent="WIyWlLk6GJQsqaUBKTNV-1" vertex="1">
          <mxGeometry x="320" y="585" width="220" height="150" as="geometry" />
        </mxCell>
        <mxCell id="YijEsty0o5q5vM4u5t1w-45" value="- material : StringÂ &#xa;- name : String&#xa;- trashType : TrashType" style="text;strokeColor=none;fillColor=none;align=left;verticalAlign=top;spacingLeft=4;spacingRight=4;overflow=hidden;rotatable=0;points=[[0,0.5],[1,0.5]];portConstraint=eastwest;" parent="YijEsty0o5q5vM4u5t1w-44" vertex="1">
          <mxGeometry y="26" width="220" height="54" as="geometry" />
        </mxCell>
        <mxCell id="YijEsty0o5q5vM4u5t1w-46" value="" style="line;strokeWidth=1;fillColor=none;align=left;verticalAlign=middle;spacingTop=-1;spacingLeft=3;spacingRight=3;rotatable=0;labelPosition=right;points=[];portConstraint=eastwest;" parent="YijEsty0o5q5vM4u5t1w-44" vertex="1">
          <mxGeometry y="80" width="220" height="10" as="geometry" />
        </mxCell>
        <mxCell id="YijEsty0o5q5vM4u5t1w-47" value="+ getName ( ) : String&#xa;" style="text;strokeColor=none;fillColor=none;align=left;verticalAlign=top;spacingLeft=4;spacingRight=4;overflow=hidden;rotatable=0;points=[[0,0.5],[1,0.5]];portConstraint=eastwest;" parent="YijEsty0o5q5vM4u5t1w-44" vertex="1">
          <mxGeometry y="90" width="220" height="60" as="geometry" />
        </mxCell>
        <mxCell id="YijEsty0o5q5vM4u5t1w-48" value="Container" style="swimlane;fontStyle=1;align=center;verticalAlign=top;childLayout=stackLayout;horizontal=1;startSize=26;horizontalStack=0;resizeParent=1;resizeParentMax=0;resizeLast=0;collapsible=1;marginBottom=0;fontFamily=Helvetica;" parent="WIyWlLk6GJQsqaUBKTNV-1" vertex="1">
          <mxGeometry x="50" y="615" width="220" height="120" as="geometry" />
        </mxCell>
        <mxCell id="YijEsty0o5q5vM4u5t1w-49" value="- name : String&#xa;- trashType : TrashType" style="text;strokeColor=none;fillColor=none;align=left;verticalAlign=top;spacingLeft=4;spacingRight=4;overflow=hidden;rotatable=0;points=[[0,0.5],[1,0.5]];portConstraint=eastwest;" parent="YijEsty0o5q5vM4u5t1w-48" vertex="1">
          <mxGeometry y="26" width="220" height="34" as="geometry" />
        </mxCell>
        <mxCell id="YijEsty0o5q5vM4u5t1w-50" value="" style="line;strokeWidth=1;fillColor=none;align=left;verticalAlign=middle;spacingTop=-1;spacingLeft=3;spacingRight=3;rotatable=0;labelPosition=right;points=[];portConstraint=eastwest;" parent="YijEsty0o5q5vM4u5t1w-48" vertex="1">
          <mxGeometry y="60" width="220" height="10" as="geometry" />
        </mxCell>
        <mxCell id="YijEsty0o5q5vM4u5t1w-51" value="+ checkRecycling ( Trash trash ) : int" style="text;strokeColor=none;fillColor=none;align=left;verticalAlign=top;spacingLeft=4;spacingRight=4;overflow=hidden;rotatable=0;points=[[0,0.5],[1,0.5]];portConstraint=eastwest;" parent="YijEsty0o5q5vM4u5t1w-48" vertex="1">
          <mxGeometry y="70" width="220" height="50" as="geometry" />
        </mxCell>
        <mxCell id="YijEsty0o5q5vM4u5t1w-52" value="RecyclingCenter" style="swimlane;fontStyle=1;align=center;verticalAlign=top;childLayout=stackLayout;horizontal=1;startSize=26;horizontalStack=0;resizeParent=1;resizeParentMax=0;resizeLast=0;collapsible=1;marginBottom=0;fontFamily=Helvetica;" parent="WIyWlLk6GJQsqaUBKTNV-1" vertex="1">
          <mxGeometry x="180" y="820" width="220" height="130" as="geometry" />
        </mxCell>
        <mxCell id="YijEsty0o5q5vM4u5t1w-53" value="No attributes" style="text;strokeColor=none;fillColor=none;align=left;verticalAlign=top;spacingLeft=4;spacingRight=4;overflow=hidden;rotatable=0;points=[[0,0.5],[1,0.5]];portConstraint=eastwest;" parent="YijEsty0o5q5vM4u5t1w-52" vertex="1">
          <mxGeometry y="26" width="220" height="44" as="geometry" />
        </mxCell>
        <mxCell id="YijEsty0o5q5vM4u5t1w-54" value="" style="line;strokeWidth=1;fillColor=none;align=left;verticalAlign=middle;spacingTop=-1;spacingLeft=3;spacingRight=3;rotatable=0;labelPosition=right;points=[];portConstraint=eastwest;" parent="YijEsty0o5q5vM4u5t1w-52" vertex="1">
          <mxGeometry y="70" width="220" height="10" as="geometry" />
        </mxCell>
        <mxCell id="YijEsty0o5q5vM4u5t1w-55" value="+ getContainers( ) : Container [ ]" style="text;strokeColor=none;fillColor=none;align=left;verticalAlign=top;spacingLeft=4;spacingRight=4;overflow=hidden;rotatable=0;points=[[0,0.5],[1,0.5]];portConstraint=eastwest;" parent="YijEsty0o5q5vM4u5t1w-52" vertex="1">
          <mxGeometry y="80" width="220" height="50" as="geometry" />
        </mxCell>
        <mxCell id="YijEsty0o5q5vM4u5t1w-56" value="Command" style="swimlane;fontStyle=1;align=center;verticalAlign=top;childLayout=stackLayout;horizontal=1;startSize=26;horizontalStack=0;resizeParent=1;resizeParentMax=0;resizeLast=0;collapsible=1;marginBottom=0;fontFamily=Helvetica;" parent="WIyWlLk6GJQsqaUBKTNV-1" vertex="1">
          <mxGeometry x="-110" y="160" width="250" height="160" as="geometry" />
        </mxCell>
        <mxCell id="YijEsty0o5q5vM4u5t1w-57" value="- commandWord : commandWord&#xa;- secondWord : String" style="text;strokeColor=none;fillColor=none;align=left;verticalAlign=top;spacingLeft=4;spacingRight=4;overflow=hidden;rotatable=0;points=[[0,0.5],[1,0.5]];portConstraint=eastwest;" parent="YijEsty0o5q5vM4u5t1w-56" vertex="1">
          <mxGeometry y="26" width="250" height="44" as="geometry" />
        </mxCell>
        <mxCell id="YijEsty0o5q5vM4u5t1w-58" value="" style="line;strokeWidth=1;fillColor=none;align=left;verticalAlign=middle;spacingTop=-1;spacingLeft=3;spacingRight=3;rotatable=0;labelPosition=right;points=[];portConstraint=eastwest;" parent="YijEsty0o5q5vM4u5t1w-56" vertex="1">
          <mxGeometry y="70" width="250" height="10" as="geometry" />
        </mxCell>
        <mxCell id="YijEsty0o5q5vM4u5t1w-59" value="+ getCommandWord ( ) : CommandWord&#xa;+ getSecondWord ( ) : String&#xa;+ isUnknown ( ) : boolean&#xa;+ hasSecondWord ( ) : boolean" style="text;strokeColor=none;fillColor=none;align=left;verticalAlign=top;spacingLeft=4;spacingRight=4;overflow=hidden;rotatable=0;points=[[0,0.5],[1,0.5]];portConstraint=eastwest;" parent="YijEsty0o5q5vM4u5t1w-56" vertex="1">
          <mxGeometry y="80" width="250" height="80" as="geometry" />
        </mxCell>
        <mxCell id="YijEsty0o5q5vM4u5t1w-76" value="Extends" style="endArrow=block;endSize=16;endFill=0;html=1;fontFamily=Helvetica;entryX=0.761;entryY=0.998;entryDx=0;entryDy=0;entryPerimeter=0;" parent="WIyWlLk6GJQsqaUBKTNV-1" target="YijEsty0o5q5vM4u5t1w-31" edge="1">
          <mxGeometry width="160" relative="1" as="geometry">
            <mxPoint x="641" y="880" as="sourcePoint" />
            <mxPoint x="730" y="640" as="targetPoint" />
          </mxGeometry>
        </mxCell>
        <mxCell id="YijEsty0o5q5vM4u5t1w-81" value="" style="endArrow=none;html=1;fontFamily=Helvetica;exitX=1.001;exitY=0.78;exitDx=0;exitDy=0;exitPerimeter=0;" parent="WIyWlLk6GJQsqaUBKTNV-1" source="YijEsty0o5q5vM4u5t1w-53" edge="1">
          <mxGeometry width="50" height="50" relative="1" as="geometry">
            <mxPoint x="550" y="830" as="sourcePoint" />
            <mxPoint x="640" y="880" as="targetPoint" />
          </mxGeometry>
        </mxCell>
        <mxCell id="pgET35z-hrxBjhuw732a-5" style="edgeStyle=orthogonalEdgeStyle;rounded=0;orthogonalLoop=1;jettySize=auto;html=1;exitX=0.759;exitY=0.989;exitDx=0;exitDy=0;exitPerimeter=0;" edge="1" parent="WIyWlLk6GJQsqaUBKTNV-1" source="YijEsty0o5q5vM4u5t1w-35">
          <mxGeometry relative="1" as="geometry">
            <mxPoint x="847" y="330" as="targetPoint" />
            <Array as="points">
              <mxPoint x="847" y="330" />
            </Array>
          </mxGeometry>
        </mxCell>
        <mxCell id="pgET35z-hrxBjhuw732a-7" style="edgeStyle=orthogonalEdgeStyle;rounded=0;orthogonalLoop=1;jettySize=auto;html=1;exitX=0.211;exitY=1.008;exitDx=0;exitDy=0;exitPerimeter=0;" edge="1" parent="WIyWlLk6GJQsqaUBKTNV-1" source="YijEsty0o5q5vM4u5t1w-31">
          <mxGeometry relative="1" as="geometry">
            <mxPoint x="481" y="586" as="targetPoint" />
            <Array as="points">
              <mxPoint x="481" y="586" />
            </Array>
          </mxGeometry>
        </mxCell>
        <mxCell id="pgET35z-hrxBjhuw732a-8" style="edgeStyle=orthogonalEdgeStyle;rounded=0;orthogonalLoop=1;jettySize=auto;html=1;exitX=0.851;exitY=1.003;exitDx=0;exitDy=0;exitPerimeter=0;" edge="1" parent="WIyWlLk6GJQsqaUBKTNV-1" source="YijEsty0o5q5vM4u5t1w-18" target="YijEsty0o5q5vM4u5t1w-44">
          <mxGeometry relative="1" as="geometry">
            <Array as="points">
              <mxPoint x="360" y="572" />
              <mxPoint x="360" y="572" />
            </Array>
          </mxGeometry>
        </mxCell>
        <mxCell id="pgET35z-hrxBjhuw732a-9" style="edgeStyle=orthogonalEdgeStyle;rounded=0;orthogonalLoop=1;jettySize=auto;html=1;entryX=0.999;entryY=0.193;entryDx=0;entryDy=0;entryPerimeter=0;" edge="1" parent="WIyWlLk6GJQsqaUBKTNV-1" source="YijEsty0o5q5vM4u5t1w-45" target="YijEsty0o5q5vM4u5t1w-48">
          <mxGeometry relative="1" as="geometry">
            <Array as="points">
              <mxPoint x="295" y="638" />
            </Array>
          </mxGeometry>
        </mxCell>
        <mxCell id="pgET35z-hrxBjhuw732a-10" style="edgeStyle=orthogonalEdgeStyle;rounded=0;orthogonalLoop=1;jettySize=auto;html=1;exitX=0.859;exitY=1.003;exitDx=0;exitDy=0;entryX=0.271;entryY=0.011;entryDx=0;entryDy=0;exitPerimeter=0;entryPerimeter=0;" edge="1" parent="WIyWlLk6GJQsqaUBKTNV-1" source="YijEsty0o5q5vM4u5t1w-51" target="YijEsty0o5q5vM4u5t1w-52">
          <mxGeometry relative="1" as="geometry">
            <Array as="points">
              <mxPoint x="240" y="735" />
              <mxPoint x="240" y="778" />
              <mxPoint x="240" y="778" />
            </Array>
          </mxGeometry>
        </mxCell>
        <mxCell id="pgET35z-hrxBjhuw732a-11" style="edgeStyle=orthogonalEdgeStyle;rounded=0;orthogonalLoop=1;jettySize=auto;html=1;exitX=0.184;exitY=1.013;exitDx=0;exitDy=0;exitPerimeter=0;" edge="1" parent="WIyWlLk6GJQsqaUBKTNV-1" source="YijEsty0o5q5vM4u5t1w-47">
          <mxGeometry relative="1" as="geometry">
            <mxPoint x="361" y="820" as="targetPoint" />
            <Array as="points">
              <mxPoint x="360" y="790" />
              <mxPoint x="361" y="790" />
            </Array>
          </mxGeometry>
        </mxCell>
        <mxCell id="pgET35z-hrxBjhuw732a-12" value="TrashType" style="swimlane;fontStyle=1;align=center;verticalAlign=top;childLayout=stackLayout;horizontal=1;startSize=26;horizontalStack=0;resizeParent=1;resizeParentMax=0;resizeLast=0;collapsible=1;marginBottom=0;" vertex="1" parent="WIyWlLk6GJQsqaUBKTNV-1">
          <mxGeometry x="180" y="990" width="220" height="124" as="geometry" />
        </mxCell>
        <mxCell id="pgET35z-hrxBjhuw732a-13" value="METAL&#xa;HAZARDOUSWASTE&#xa;RESIDUALWASTE&#xa;PLASTIC" style="text;strokeColor=none;fillColor=none;align=left;verticalAlign=top;spacingLeft=4;spacingRight=4;overflow=hidden;rotatable=0;points=[[0,0.5],[1,0.5]];portConstraint=eastwest;" vertex="1" parent="pgET35z-hrxBjhuw732a-12">
          <mxGeometry y="26" width="220" height="64" as="geometry" />
        </mxCell>
        <mxCell id="pgET35z-hrxBjhuw732a-14" value="" style="line;strokeWidth=1;fillColor=none;align=left;verticalAlign=middle;spacingTop=-1;spacingLeft=3;spacingRight=3;rotatable=0;labelPosition=right;points=[];portConstraint=eastwest;" vertex="1" parent="pgET35z-hrxBjhuw732a-12">
          <mxGeometry y="90" width="220" height="8" as="geometry" />
        </mxCell>
        <mxCell id="pgET35z-hrxBjhuw732a-15" value="No functions" style="text;strokeColor=none;fillColor=none;align=left;verticalAlign=top;spacingLeft=4;spacingRight=4;overflow=hidden;rotatable=0;points=[[0,0.5],[1,0.5]];portConstraint=eastwest;" vertex="1" parent="pgET35z-hrxBjhuw732a-12">
          <mxGeometry y="98" width="220" height="26" as="geometry" />
        </mxCell>
        <mxCell id="pgET35z-hrxBjhuw732a-18" style="edgeStyle=orthogonalEdgeStyle;rounded=0;orthogonalLoop=1;jettySize=auto;html=1;entryX=1;entryY=0.5;entryDx=0;entryDy=0;exitX=0.819;exitY=1.003;exitDx=0;exitDy=0;exitPerimeter=0;" edge="1" parent="WIyWlLk6GJQsqaUBKTNV-1" source="YijEsty0o5q5vM4u5t1w-47" target="pgET35z-hrxBjhuw732a-13">
          <mxGeometry relative="1" as="geometry">
            <mxPoint x="500" y="740" as="sourcePoint" />
          </mxGeometry>
        </mxCell>
        <mxCell id="pgET35z-hrxBjhuw732a-19" style="edgeStyle=orthogonalEdgeStyle;rounded=0;orthogonalLoop=1;jettySize=auto;html=1;entryX=0;entryY=0.5;entryDx=0;entryDy=0;exitX=0.18;exitY=1.02;exitDx=0;exitDy=0;exitPerimeter=0;" edge="1" parent="WIyWlLk6GJQsqaUBKTNV-1" source="YijEsty0o5q5vM4u5t1w-51" target="pgET35z-hrxBjhuw732a-13">
          <mxGeometry relative="1" as="geometry">
            <mxPoint x="80" y="739" as="sourcePoint" />
          </mxGeometry>
        </mxCell>
      </root>
    </mxGraphModel>
  </diagram>
</mxfile>
